<svg xmlns="http://www.w3.org/2000/svg" width="1200" height="630" viewBox="0 0 1200 630" font-family="ui-monospace, SFMono-Regular, Menlo, Monaco, Consolas, monospace">
  <rect width="1200" height="630" fill="#0a0a0a" />
  <rect x="0" y="0" width="1200" height="2" fill="#22c55e" opacity="0.6" />
  <g transform="translate(80, 110)">
    <text x="0" y="0" font-size="40" fill="#fafafa" font-weight="500" letter-spacing="-1">commands<tspan fill="#525252">.</tspan><tspan fill="#a3a3a3">agent</tspan></text>
  </g>
  <g transform="translate(80, 280)">
    <text x="0" y="0" font-size="96" fill="#fafafa" font-weight="500" letter-spacing="-3">Slash</text>
    <rect x="300" y="-78" width="430" height="100" rx="12" fill="#141414" stroke="#262626" />
    <text x="320" y="-6" font-size="72" fill="#a3a3a3" font-weight="500">/commands</text>
  </g>
  <text x="80" y="410" font-size="56" fill="#fafafa" font-weight="500" letter-spacing="-2">para tu agent-cli,</text>
  <text x="510" y="410" font-size="64" fill="#22c55e" font-weight="700" letter-spacing="-2">más rápido</text>
  <text x="80" y="500" font-size="32" fill="#a3a3a3">Marketplace de slash-commands para agentes de IA</text>
  <g transform="translate(80, 560)" font-size="24" fill="#525252">
    <rect x="0" y="0" width="110" height="40" rx="8" fill="#141414" stroke="#262626" />
    <text x="18" y="27" fill="#a3a3a3">OpenCode</text>
    <rect x="130" y="0" width="140" height="40" rx="8" fill="#141414" stroke="#262626" />
    <text x="148" y="27" fill="#a3a3a3">Claude Code</text>
    <rect x="290" y="0" width="80" height="40" rx="8" fill="#141414" stroke="#262626" />
    <text x="308" y="27" fill="#a3a3a3">Codex</text>
    <rect x="390" y="0" width="150" height="40" rx="8" fill="#141414" stroke="#262626" />
    <text x="408" y="27" fill="#a3a3a3">Antigravity</text>
  </g>
  <text x="1120" y="610" text-anchor="end" font-size="20" fill="#525252">npx · bunx · pnpx · deno</text>
</svg>